PathFileType  4	(X/Y/Z) C:\Users\antoi\Documents\MyRepositories\mobilecap\ResultsAnalysis
DataRate	CameraRate	NumFrames	NumMarkers	Units	OrigDataRate	OrigDataStartFrame	OrigNumFrames
100.0	100.0	4	51	mm	100.0	246	280
Frame#	Time	r_knee			r_shank_antsup			r_ankle			r_calc			r_5meta			r_toe			L_knee			L_shank_antsup			L_ankle			L_calc			L_5meta			L_toe			r_sh2			r_sh3			r_sh4			L_sh2			L_sh3			r_thigh1			r_thigh2			r_thigh3			r_thigh4			r_thigh5			L_thigh1			L_thigh2			L_thigh3			L_thigh4			r.ASIS			r.PSIS			L.ASIS			L.PSIS			C7			R_Shoulder			L_Shoulder			R_Sternum			L_Sternum			R_humerus			R_elbow_med			R_elbow_lat			R_forearm			R_wrist_radius			R_wrist_ulna			L_humerus			L_elbow_med			L_elbow_lat			L_forearm			L_wrist_radius			L_wrist_ulna			R_HJC			L_HJC			R_HJC_reg			L_HJC_reg			
		X1	Y1	Z1	X2	Y2	Z2	X3	Y3	Z3	X4	Y4	Z4	X5	Y5	Z5	X6	Y6	Z6	X7	Y7	Z7	X8	Y8	Z8	X9	Y9	Z9	X10	Y10	Z10	X11	Y11	Z11	X12	Y12	Z12	X13	Y13	Z13	X14	Y14	Z14	X15	Y15	Z15	X16	Y16	Z16	X17	Y17	Z17	X18	Y18	Z18	X19	Y19	Z19	X20	Y20	Z20	X21	Y21	Z21	X22	Y22	Z22	X23	Y23	Z23	X24	Y24	Z24	X25	Y25	Z25	X26	Y26	Z26	X27	Y27	Z27	X28	Y28	Z28	X29	Y29	Z29	X30	Y30	Z30	X31	Y31	Z31	X32	Y32	Z32	X33	Y33	Z33	X34	Y34	Z34	X35	Y35	Z35	X36	Y36	Z36	X37	Y37	Z37	X38	Y38	Z38	X39	Y39	Z39	X40	Y40	Z40	X41	Y41	Z41	X42	Y42	Z42	X43	Y43	Z43	X44	Y44	Z44	X45	Y45	Z45	X46	Y46	Z46	X47	Y47	Z47	X48	Y48	Z48	X49	Y49	Z49	X50	Y50	Z50	X51	Y51	Z51	

246	2.45000000	-169.70278	1111.03068	-325.93399	-148.03794	990.23458	-317.85378	-250.96637	657.17216	-355.85745	-287.66800	658.91954	-429.59414	-181.13251	516.35562	-301.79688	-108.43361	536.03907	-334.11423	-107.09134	1129.83595	-724.91449	-66.24500	1027.52906	-721.14860	-135.36708	685.65152	-769.24839	-204.49226	677.98694	-720.17443	-41.02155	549.03286	-787.88711	-1.71312	561.64010	-721.94160	-146.05120	875.46308	-329.32004	-224.05209	985.34656	-308.32994	-223.52439	869.12286	-301.10534	-146.31947	1030.74559	-761.53621	-120.64990	915.46975	-794.68780	-59.51880	1336.29641	-306.73297	-63.50581	1226.23700	-317.40352	-111.71279	1198.39889	-281.18893	-167.92319	1332.96669	-271.71026	-164.97986	1216.22895	-288.05884	-18.19586	1378.12011	-704.36074	-15.16194	1240.42264	-704.62309	-122.18825	1375.19326	-746.45258	-121.01253	1236.95605	-741.95140	-52.89442	1597.85380	-338.46024	-215.46132	1693.30129	-453.61501	-2.58341	1612.03922	-596.70707	-198.22078	1701.31354	-549.01919	23.01805	2151.39387	-467.19580	9.81722	2108.61542	-285.45285	78.44453	2077.63086	-620.16937	122.47388	2029.30686	-406.12243	118.22206	2017.50969	-465.56638	-102.19689	1997.91958	-201.23620	-255.61882	1819.82247	-244.97525	-283.04846	1885.34917	-198.62009	-316.27746	1769.54378	-69.69356	-360.96196	1682.51161	-1.76610	-401.48165	1693.59100	-6.64728	22.14046	1948.45430	-742.70241	-128.49196	1778.51838	-753.09810	-98.51099	1807.38545	-823.39539	-36.34598	1650.34083	-858.38788	-29.38455	1549.36201	-913.81095	-65.74277	1557.99720	-944.32404	-144.40957	1547.35302	-396.12522	-102.67845	1547.88255	-605.39646	-134.60653	1542.43050	-396.04108	-103.78666	1556.75341	-566.58852	
247	2.46000000	-167.83806	1101.65751	-324.92236	-146.79512	980.99418	-316.82245	-250.17116	648.63092	-356.06194	-285.66724	649.82935	-430.67829	-181.70544	508.62641	-299.17848	-108.41695	527.37913	-330.67481	-106.33168	1120.60925	-723.95781	-65.46934	1018.46192	-720.06237	-134.92261	676.47056	-767.90589	-203.75138	668.59725	-718.43488	-40.14622	540.27366	-786.99895	-0.68469	552.96812	-721.20922	-144.79762	866.26664	-328.44901	-222.80301	976.03315	-307.87833	-222.65241	860.04672	-301.02559	-145.56328	1021.59204	-760.56426	-119.92688	906.34937	-793.67353	-58.28074	1327.29679	-306.65957	-61.97734	1217.35746	-316.89581	-109.74091	1189.21818	-280.41713	-166.38360	1323.58542	-270.62748	-163.06190	1206.80266	-287.35604	-17.47239	1369.14209	-703.12621	-14.91007	1231.36591	-703.58961	-122.60796	1366.08001	-747.29395	-120.45068	1227.77563	-741.63770	-52.36180	1588.98825	-338.82046	-216.00483	1683.52805	-452.76826	-3.27409	1603.22381	-596.85664	-199.11611	1691.53846	-548.13266	21.06538	2142.75146	-466.36578	8.42163	2099.84197	-284.74377	77.29898	2069.39195	-619.34007	120.50400	2020.31019	-405.36893	117.09933	2009.41787	-465.31711	-102.18956	1985.95385	-202.58172	-252.16351	1805.98100	-248.30462	-281.52373	1870.83851	-202.53164	-308.58053	1752.08213	-74.42711	-349.09015	1663.12517	-6.48591	-390.01529	1672.71194	-10.65926	23.27305	1935.66687	-737.79661	-125.67374	1764.94270	-747.05043	-94.47114	1791.65935	-817.92004	-25.21321	1635.04886	-842.64021	-12.47776	1531.88896	-892.24093	-48.13766	1537.02158	-923.98370	-143.83946	1537.92653	-395.66764	-103.17093	1538.62873	-605.14813	-134.06403	1533.24836	-396.03857	-103.89301	1547.55921	-566.40873	
248	2.47000000	-165.85204	1091.22872	-323.95352	-145.20462	970.53223	-316.00572	-249.14707	638.96006	-356.21847	-283.54541	639.62572	-431.64252	-182.09185	499.93891	-296.67033	-108.27670	517.64498	-327.58824	-105.55623	1110.19393	-723.09365	-64.69630	1008.26267	-719.01085	-134.52527	666.21399	-766.49074	-203.00856	657.95650	-716.50730	-39.22634	530.46179	-786.21402	0.51822	543.35706	-720.58686	-143.25732	855.98953	-327.66201	-221.37555	965.53166	-307.36679	-221.25055	849.59625	-300.62155	-144.84055	1011.29750	-759.60628	-119.17260	896.14294	-792.69170	-57.12736	1317.27160	-306.67689	-60.29059	1207.26631	-316.81502	-107.64222	1179.02021	-279.72012	-164.79223	1313.16441	-269.54709	-160.99393	1196.39819	-286.44008	-17.04031	1359.11212	-702.07412	-14.73197	1221.17750	-702.42044	-122.79165	1356.02165	-748.37862	-119.98955	1217.46093	-741.17107	-51.41764	1578.51769	-339.42415	-216.40845	1672.64289	-451.67196	-4.03335	1593.24360	-596.87065	-199.95791	1680.76685	-547.37260	19.18131	2133.05252	-465.56592	7.03339	2090.20606	-284.09291	75.88547	2060.48772	-618.27805	118.71836	2010.22238	-404.86551	116.00409	2000.31632	-465.00608	-102.11736	1973.60081	-203.59896	-249.37354	1792.05682	-250.88733	-280.17972	1856.46774	-205.52652	-300.77730	1735.09690	-78.38995	-337.09484	1644.72658	-10.03892	-378.35634	1652.99615	-13.47904	24.74083	1922.76140	-733.30323	-122.92746	1751.22243	-742.12321	-90.09597	1775.76710	-813.13831	-13.84466	1620.72337	-827.31836	5.35134	1516.24594	-871.47969	-29.25066	1517.73871	-903.74339	-143.16472	1527.17530	-395.35022	-103.74552	1528.32723	-605.06488	-133.29914	1522.91743	-396.11122	-104.08387	1537.34354	-566.05839	
249	2.48000000	-163.73552	1079.75646	-322.98656	-143.42483	958.96479	-315.39190	-247.90679	628.15027	-356.40564	-281.22006	628.41306	-432.65112	-182.22082	490.16578	-294.35031	-108.00374	506.72106	-324.95449	-104.85310	1098.75597	-722.45711	-63.96253	996.94058	-718.15362	-134.16946	654.84431	-765.06056	-202.25775	646.10191	-714.51267	-38.26787	519.67480	-785.37853	1.91440	532.80395	-719.97467	-141.52697	844.40198	-327.33013	-219.89356	953.81362	-306.76271	-219.62646	837.90419	-300.20214	-144.19257	999.91073	-758.56341	-118.42235	884.78201	-791.67531	-55.98106	1306.50261	-306.37195	-58.51160	1196.17233	-316.88289	-105.41128	1167.86576	-279.07069	-163.19975	1301.66342	-268.58801	-158.86338	1184.94911	-285.28885	-17.28728	1347.74189	-701.97873	-14.60220	1209.93423	-701.35304	-122.68409	1344.69810	-748.58633	-119.66451	1205.96185	-740.51384	-50.09670	1566.27794	-340.51044	-216.78864	1660.75562	-450.53584	-4.78298	1582.15387	-596.77409	-200.78702	1669.00646	-546.71631	17.27798	2122.24412	-465.00485	5.78519	2079.54505	-283.61253	74.26692	2050.66569	-617.33542	116.98925	1999.12855	-404.61389	114.94876	1990.03370	-464.60723	-102.15746	1960.89448	-204.22853	-247.91881	1778.64108	-254.06339	-279.20818	1842.07000	-207.31516	-292.85087	1718.63988	-81.33937	-325.07477	1627.18936	-12.52284	-366.57960	1634.25729	-15.05807	26.01196	1910.52715	-730.52891	-120.07921	1737.15878	-738.13602	-85.39086	1759.60111	-808.99370	-2.46715	1607.28703	-812.49668	23.91110	1502.61272	-851.80486	-9.22686	1500.36887	-884.24025	-142.46611	1515.03151	-395.38058	-104.40496	1517.07655	-605.33809	-132.46138	1511.64517	-396.52082	-104.31858	1526.15470	-565.66209	
